<svg width="512" height="512" viewBox="0 0 512 512" fill="none" xmlns="http://www.w3.org/2000/svg">
<rect width="512" height="512" fill="#212121"/>
<path d="M120.984 387.211H88.086L186.032 124.789H218.93L120.984 387.211ZM420.244 286.975C420.244 312.562 414.169 332.056 400.103 346.208C385.991 360.36 366.551 367.717 341.737 367.717C318.933 367.717 301.456 362.328 289.399 351.55C277.343 340.772 271.268 325.964 271.268 307.126C271.268 300.378 271.922 294.332 272.623 288.943L306.175 282.898C305.521 290.958 304.82 297.05 304.82 299.722C304.82 313.171 307.484 322.59 313.559 328.635C319.587 334.68 328.98 338.054 341.083 338.054C357.205 338.054 368.607 333.321 375.289 324.605C382.018 315.186 385.336 301.034 385.336 281.539V147.657H420.244V286.928V286.975Z" fill="white"/>
</svg>