<svg xmlns="http://www.w3.org/2000/svg" xmlns:xlink="http://www.w3.org/1999/xlink"><defs><style>#logo-mark{visibility:hidden}@media all and (max-width:55px){#logo-mark{visibility:visible}#logo-full{visibility:hidden}}</style></defs>
<title>Joanne Lee</title>
<svg id="logo-full" viewBox="420 205 150 150"><path d="M15.7,342.5H0l46.8-125h15.7L15.7,342.5z M158.9,294.7c0,12.2-3.2,21.5-9.9,28.2s-16,10.3-27.9,10.3
	c-10.9,0-19.2-2.6-25-7.7c-5.8-5.1-8.7-12.2-8.7-21.1c0-3.2,0.3-6.1,0.6-8.7l16-2.9c-0.3,3.8-0.6,6.7-0.6,8c0,6.4,1.3,10.9,4.2,13.8
	s7.4,4.5,13.1,4.5c7.7,0,13.1-2.2,16.3-6.4c3.2-4.5,4.8-11.2,4.8-20.5v-63.8h16.7v66.3L158.9,294.7L158.9,294.7z M248,262.1
	c7,7.4,10.3,17.3,10.3,30.1s-3.5,22.7-10.3,30.1c-7,7.4-16.7,10.9-28.8,10.9c-12.2,0-21.8-3.5-28.8-10.9s-10.3-17.3-10.3-30.1
	s3.5-22.7,10.3-30.1c7-7.4,16.7-10.9,28.8-10.9C231.7,251.2,241.3,255,248,262.1z M202.8,271.7c-3.8,4.8-5.8,11.5-5.8,20.5
	s1.9,15.7,5.8,20.5c3.8,4.8,9.3,7,16.3,7s12.5-2.6,16.3-7.4s5.8-11.5,5.8-20.5s-1.9-15.7-5.8-20.5c-3.8-4.8-9.3-7.4-16.3-7.4
	C212.1,264.6,206.7,266.9,202.8,271.7z M353.4,319.7l-1,11.2c-2.9,1.3-6.1,1.9-9.6,1.9c-4.5,0-8-1-10.9-2.6c-2.6-1.9-4.5-4.8-5.1-9
	c-2.6,3.5-6.1,6.4-10.6,8.7c-4.8,1.9-9.9,3.2-16,3.2c-7.7,0-13.8-1.9-18.6-5.4c-4.8-3.5-7-8.7-7-15.4c0-6.1,2.6-11.5,7.7-15.7
	s12.8-7.4,23.1-9l19.9-3.5v-4.2c0-4.8-1.3-8.7-4.2-11.5c-2.9-2.9-6.7-4.2-11.9-4.2c-10.3,0-17,4.8-20.2,14.1l-13.1-7
	c1.9-6.4,5.8-11.2,11.5-15.1c5.8-3.5,12.8-5.4,21.5-5.4c10.3,0,18.3,2.2,24.4,7c6.1,4.8,9,11.5,9,20.8v35.6c0,1.9,0.3,3.5,1.3,4.5
	s2.2,1.3,4.5,1.3C349.9,320.4,351.8,320.4,353.4,319.7z M318.5,316.2c4.2-2.9,6.4-6.4,6.4-10.9V296l-17,3.5c-5.4,1-9.6,2.6-12.2,4.5
	s-3.8,4.5-3.8,7.7c0,2.9,1,5.1,3.2,6.7c1.9,1.6,4.8,2.2,8.7,2.2C309.2,320.4,314.3,319.1,318.5,316.2z M432.9,258.9
	c5.4,5.1,8.3,12.2,8.3,21.8v50.9h-16.7v-45.5c0-13.8-5.4-20.8-16.7-20.8c-5.8,0-10.9,1.9-15.1,6.1s-6.4,10.3-6.4,18.6v41.6h-17
	v-78.5h15.2l0.6,13.1c2.6-4.8,6.1-8.7,10.9-10.9c4.5-2.6,9.9-3.5,15.7-3.5C420.4,251.2,427.4,253.7,432.9,258.9z M530.3,258.9
	c5.4,5.1,8.3,12.2,8.3,21.8v50.9h-16.7v-45.5c0-13.8-5.4-20.8-16.7-20.8c-5.8,0-10.9,1.9-15.1,6.1s-6.4,10.3-6.4,18.6v41.6H467
	v-78.5h15.1l0.6,13.1c2.6-4.8,6.1-8.7,10.9-10.9c4.5-2.6,9.9-3.5,15.7-3.5C517.8,251.2,524.8,253.7,530.3,258.9z M633.5,298.6h-57.7
	c1,7,3.5,12.2,7.4,15.7c3.8,3.5,9,5.4,15.4,5.4c5.1,0,9.3-1,12.8-2.9s5.8-4.5,7-8l14.1,5.8c-5.8,12.2-17,18.3-33.6,18.3
	c-12.5,0-22.1-3.5-29.2-10.9c-7-7.4-10.6-17.3-10.6-30.1c0-12.8,3.2-23.1,9.9-30.1s16-10.9,28.2-10.9c11.5,0,20.5,3.5,26.9,10.6
	c6.4,7,9.6,16.3,9.6,27.9C634.1,292.8,634.1,295.7,633.5,298.6z M583.2,270.1c-3.8,3.5-6.1,8.7-7,15.7h42.3
	c-1-6.7-3.2-11.9-6.7-15.4s-8.3-5.4-14.1-5.4C591.8,264.6,586.7,266.5,583.2,270.1z M782.8,317.2v14.4h-74V227.8h16.7v89.4H782.8z
	 M868.3,298.6h-57.7c1,7,3.5,12.2,7.4,15.7c3.8,3.5,9,5.4,15.4,5.4c5.1,0,9.3-1,12.8-2.9s5.8-4.5,7-8l14.1,5.8
	c-5.8,12.2-17,18.3-33.6,18.3c-12.5,0-22.1-3.5-29.2-10.9c-7-7.4-10.6-17.3-10.6-30.1c0-12.8,3.2-23.1,9.9-30.1s16-10.9,28.2-10.9
	c11.5,0,20.5,3.5,26.9,10.6c6.4,7,9.6,16.3,9.6,27.9C869,292.8,868.6,295.7,868.3,298.6z M817.7,270.1c-3.8,3.5-6.1,8.7-7,15.7h42.6
	c-1-6.7-3.2-11.9-6.7-15.4s-8.3-5.4-14.1-5.4C826.3,264.6,821.5,266.5,817.7,270.1z M959.6,298.6h-57.7c1,7,3.5,12.2,7.4,15.7
	c3.8,3.5,9,5.4,15.4,5.4c5.1,0,9.3-1,12.8-2.9s5.8-4.5,7-8l14.1,5.8c-5.8,12.2-17,18.3-34,18.3c-12.5,0-22.1-3.5-29.2-10.9
	c-7-7.4-10.6-17.3-10.6-30.1c0-12.8,3.2-23.1,9.9-30.1s16-10.9,28.2-10.9c11.5,0,20.5,3.5,26.9,10.6c6.4,7,9.6,16.3,9.6,27.9
	C960.3,292.8,960,295.7,959.6,298.6z M909,270.1c-3.8,3.5-6.1,8.7-7,15.7h42.6c-1-6.7-3.2-11.9-6.7-15.4s-8.3-5.4-14.1-5.4
    C917.7,264.6,912.9,266.5,909,270.1z"/></svg>
<svg id="logo-mark" viewBox="0 0 960 560"><path d="M195,560h-70.4L334.2,0h70.4L195,560z M835.4,346.1c0,54.6-13,96.2-43.1,126.4c-30.2,30.2-71.8,45.9-124.9,45.9
	c-48.8,0-86.2-11.5-112-34.5s-38.8-54.6-38.8-94.8c0-14.4,1.4-27.3,2.9-38.8l71.8-12.9c-1.4,17.2-2.9,30.2-2.9,35.9
	c0,28.7,5.7,48.8,18.7,61.7c12.9,12.9,33,20.1,58.9,20.1c34.5,0,58.9-10.1,73.2-28.7c14.4-20.1,21.5-50.3,21.5-91.9V48.8h74.7V346
    l0,0V346.1z"/></svg>
</svg>
